/* XPM */
static char *d21c2f5bd8ff411bbc6e49e198c2b254[] = {
/* columns rows colors chars-per-pixel */
"16 16 16 1 ",
"  c #2F3E50",
". c #303F52",
"X c #324253",
"o c #324254",
"O c #314C5E",
"+ c #324C5F",
"@ c #334D5F",
"# c #7D8C8A",
"$ c #7E8D8B",
"% c #7F8E8C",
"& c #82918E",
"* c #93A2A1",
"= c #95A3A1",
"- c #94A4A2",
"; c #95A4A2",
": c None",
/* pixels */
":::::o.::.X:::::",
"::::::::::::::::",
":: :::;**;::: ::",
"::::;;===;;;::::",
"::::::::::::::::",
"::::::::::::::::",
"::::::::::::::::",
"::::::::::::::::",
"::::::::::::::::",
"::::::::::::::::",
"::::::::::::::::",
"::::::::::::::::",
":::::&::::%:::::",
"::+::&$$$$&::+::",
":::+::::::::+:::",
":::::+::::+:::::"
};
