/* XPM */
static char *ef2dc1a80a7a45e0b5a2ec474eefe5a6[] = {
/* columns rows colors chars-per-pixel */
"32 32 41 1 ",
"  c #2E3D4F",
". c #2E3D50",
"X c #2E3E50",
"o c #2F3E51",
"O c #2F3F51",
"+ c #2F3F52",
"@ c #2F495B",
"# c #304052",
"$ c #304A5C",
"% c #304B5E",
"& c #314B5E",
"* c #314C5E",
"= c #314C5F",
"- c #324D60",
"; c #BF1F26",
": c #BF2026",
"> c #BF2027",
", c #C02026",
"< c #C02027",
"1 c #C12027",
"2 c #C62128",
"3 c #7D8C8A",
"4 c #7E8D8B",
"5 c #7F8E8C",
"6 c #7F8F8D",
"7 c #808F8D",
"8 c #80908E",
"9 c #93A1A0",
"0 c #93A2A0",
"q c #94A3A1",
"w c #95A3A1",
"e c #94A4A2",
"r c #95A4A2",
"t c #95A5A3",
"y c #96A5A3",
"u c #96A6A4",
"i c #97A6A4",
"p c #98A7A5",
"a c #98A8A5",
"s c #98A8A6",
"d c None",
/* pixels */
"dddddddddddd++O OOOOdddddddddddd",
"ddddddddd+++OddddddOOOOddddddddd",
"dddddddd++ddddddddddddO#dddddddd",
"ddddddOOddddddddddddddddOOdddddd",
"dddddO ddddddairripddddddOOddddd",
"ddddOdddddiriqqq0r0iiidddd.Odddd",
"dddOOddddiq00000000000iddddOOddd",
"ddOOdddaiiiiiiiiiiiiiiiiddddOOdd",
"dddddddddddddddddddddddddddddddd",
"dddddddddddddddddddddddddddddddd",
"dddddddddddddddddddddddddddddddd",
"dddddddddddddddddddddddddddddddd",
"ddddddddddddddddd;dd1ddddddddddd",
"dddddddddddd,dddd;d1dddddddddddd",
"ddddddddddddd>;>ddd2dddddddddddd",
"dddddddddddddddddddd,ddddddddddd",
"ddddddddddddd;d>ddddd>dddddddddd",
"dddddddddddddddddddddddddddddddd",
"dddddddddddddddddddddddddddddddd",
"dddddddddddddddddddddddddddddddd",
"dddddddddddddddddddddddddddddddd",
"dddddddddddddddddddddddddddddddd",
"dddddddddddddddddddddddddddddddd",
"dddddddddddddddddddddddddddddddd",
"dddddddddddddddddddddddddddddddd",
"ddd=ddddd78676657766686ddddd&ddd",
"dddd=ddddd565533555565ddddd=dddd",
"ddddd=dddddd56353365dddddd-ddddd",
"dddddd&=dddddddddddddddd==dddddd",
"ddddddd=&dddddddddddddd&=ddddddd",
"ddddddddd==&dddddddd&&=ddddddddd",
"ddddddddddd&==@@&@=-&ddddddddddd"
};
