/* XPM */
static char *_32868478d0947c7835c9081bca2fce2[] = {
/* columns rows colors chars-per-pixel */
"64 64 38 1 ",
"  c #2E3D4F",
". c #2F3F51",
"X c #303F53",
"o c #314255",
"O c #324356",
"+ c #334458",
"@ c #304A5C",
"# c #314C5E",
"$ c #324F62",
"% c #345064",
"& c #365367",
"* c #BF2027",
"= c #C02027",
"- c #C42027",
"; c #C72128",
": c #D1232A",
"> c #7C8C8A",
", c #7D8C8A",
"< c #7E8D8B",
"1 c #7E8E8C",
"2 c #7F8E8C",
"3 c #80908E",
"4 c #82918F",
"5 c #839290",
"6 c #839391",
"7 c #859593",
"8 c #8A9B98",
"9 c #94A3A1",
"0 c #95A5A3",
"q c #97A6A4",
"w c #98A7A5",
"e c #98A8A6",
"r c #99A8A6",
"t c #9AA9A7",
"y c #9BABA9",
"u c #9CACAA",
"i c #9EAEAB",
"p c None",
/* pixels */
"ppppppppppppppppppppppppppp          ppppppppppppppppppppppppppp",
"ppppppppppppppppppppppp  XOXXX....XXXOX  ppppppppppppppppppppppp",
"pppppppppppppppppppp  O+    pppppppp    +O  pppppppppppppppppppp",
"pppppppppppppppppp OO  pppppppppppppppppp  OX pppppppppppppppppp",
"pppppppppppppppp XO ppppppppppppppppppppppp  OX pppppppppppppppp",
"pppppppppppppp  O pppppppppppppppppppppppppppp O  pppppppppppppp",
"ppppppppppppp O ppppppppppppppppppppppppppppppp  O ppppppppppppp",
"pppppppppppp O pppppppppppppppppppppppppppppppppp O pppppppppppp",
"ppppppppppp.. pppppppppppppp99999999pppppppppppppp X ppppppppppp",
"ppppppppp X pppppppppppp99yirrwwwrrryy99pppppppppppp..pppppppppp",
"pppppppppX ppppppppppp9wi9999999999999qiw9ppppppppppp .ppppppppp",
"pppppppp. pppppppppp9iq9999999999999999999i9pppppppppp. pppppppp",
"ppppppp .ppppppppp9yw9999999999999999999999rr9pppppppppX ppppppp",
"pppppp O pppppppp9y99999999999999999999999999y9pppppppp O pppppp",
"ppppp O pppppppp999999999999999999999999999999q9pppppppp Opppppp",
"pppppO ppppppppiiyyyyyyyyyyyyyyyyyyyyyyyyyyyyyyirpppppppp Xppppp",
"pppp  pppppppp999999999999999999999999999999999999pppppppp ppppp",
"pppppppppppppppppppppppppppppppppppppppppppppppppppppppppppppppp",
"pppppppppppppppppppppppppppppppppppppppppppppppppppppppppppppppp",
"pppppppppppppppppppppppppppppppppppppppppppppppppppppppppppppppp",
"pppppppppppppppppppppppppppppppppppppppppppppppppppppppppppppppp",
"pppppppppppppppppppppppppppppppppppppppppppppppppppppppppppppppp",
"pppppppppppppppppppppppppppppppppppppppppppppppppppppppppppppppp",
"ppppppppppppppppppppp**ppp******ppp*pppppp*ppppppppppppppppppppp",
"ppppppppppppppppppppp**pp**pppp=ppp*ppppp-=ppppppppppppppppppppp",
"ppppppppppppppppppppp**pp-ppppppppp*pppp==pppppppppppppppppppppp",
"ppppppppppppppppppppp**pp=ppppppppp*ppp=*ppppppppppppppppppppppp",
"ppppppppppppppppppppp**pp**pppppppp*pp**pppppppppppppppppppppppp",
"ppppppppppppppppppppp**ppp******ppp*pp:ppppppppppppppppppppppppp",
"ppppppppppppppppppppp**pppppppp**pp*pp*;pppppppppppppppppppppppp",
"ppppppppppppppppppppp**ppppppppp*pp*ppp*-ppppppppppppppppppppppp",
"ppppppppppppppppppppp**ppppppppp*pp*pppp**pppppppppppppppppppppp",
"ppppppppppppppppppppp**pppppppp=*pp*ppppp**ppppppppppppppppppppp",
"ppppppppppppppppppppp**pp***====ppp*pppppp**pppppppppppppppppppp",
"pppppppppppppppppppppppppppppppppppppppppppppppppppppppppppppppp",
"pppppppppppppppppppppppppppppppppppppppppppppppppppppppppppppppp",
"pppppppppppppppppppppppppppppppppppppppppppppppppppppppppppppppp",
"pppppppppppppppppppppppppppppppppppppppppppppppppppppppppppppppp",
"pppppppppppppppppppppppppppppppppppppppppppppppppppppppppppppppp",
"pppppppppppppppppppppppppppppppppppppppppppppppppppppppppppppppp",
"pppppppppppppppppppppppppppppppppppppppppppppppppppppppppppppppp",
"ppppppppppppppppppppppppppppppppp p pppppppppppppppppppppppppppp",
"pppppppppppppppppppppppppppppppppp ppppppppppppppppppppppppppppp",
"ppppppppppppppppppppppppppp ppppppp pppppppppppppppppppppppppppp",
"pppppppppppppppppppppppppppppppppppp ppppppppppppppppppppppppppp",
"pppppppppppppppppppppppppppppppppppppppppppppppppppppppppppppppp",
"pppppppppppppppppppppppppppppppppppppppppppppppppppppppppppppppp",
"pppppppppppppppppppppppppppppppppppppppppppppppppppppppppppppppp",
"pppppppppppppppppppppppppppppppppppppppppppppppppppppppppppppppp",
"pppppppppppppppppppppppppppppppppppppppppppppppppppppppppppppppp",
"pppppp@#ppppppppp<>><>><>><>>>,,<><>3>>><><><><ppppppppp@@pppppp",
"ppppppp%@ppppppppp>85455575555545555555555458>ppppppppp@%ppppppp",
"ppppppp@%@ppppppppp<33><<>3,,,,,<>>>>>>><<4><ppppppppp@$@ppppppp",
"pppppppp@%@pppppppppp>353>>>,,3><>,3><>351<pppppppppp@%@pppppppp",
"ppppppppp@%@ppppppppppp<>3753,,>,,>357<<<ppppppppppp@%@ppppppppp",
"pppppppppp@%@ppppppppppppp>>,,>543>>><ppppppppppppp@%@pppppppppp",
"ppppppppppp@$@ppppppppppppppppppppppppppppppppppp@#$@ppppppppppp",
"ppppppppppppp@%@pppppppppppppppppppppppppppppppp@%@ppppppppppppp",
"pppppppppppppp@%@@pppppppppppppppppppppppppppp@@%@pppppppppppppp",
"ppppppppppppppp@@%@#pppppppppppppppppppppppp@@%@pppppppppppppppp",
"ppppppppppppppppp@@%@@pppppppppppppppppppp@@%@@ppppppppppppppppp",
"ppppppppppppppppppp@@%%@@@pppppppppppp@@@%%@#ppppppppppppppppppp",
"pppppppppppppppppppppp@@#&%@@@@@@@@@@&&#@@pppppppppppppppppppppp",
"pppppppppppppppppppppppppp@@@@@##@@@@@pppppppppppppppppppppppppp"
};
